<?xml version="1.0" encoding="utf-8" standalone="no"?>
<!DOCTYPE svg PUBLIC "-//W3C//DTD SVG 1.1//EN"
  "http://www.w3.org/Graphics/SVG/1.1/DTD/svg11.dtd">
<!-- Created with matplotlib (https://matplotlib.org/) -->
<svg height="204.68pt" version="1.1" viewBox="0 0 418.992 204.68" width="418.992pt" xmlns="http://www.w3.org/2000/svg" xmlns:xlink="http://www.w3.org/1999/xlink">
 <defs>
  <style type="text/css">
*{stroke-linecap:butt;stroke-linejoin:round;}
  </style>
 </defs>
 <g id="figure_1">
  <g id="patch_1">
   <path d="M 0 204.68 
L 418.992 204.68 
L 418.992 0 
L 0 0 
z
" style="fill:#ffffff;"/>
  </g>
  <g id="axes_1">
   <g id="line2d_1">
    <path clip-path="url(#p5384129422)" d="M 150.19298 60.9224 
L 368.35778 60.9224 
" style="fill:none;stroke:#000000;stroke-linecap:square;stroke-width:2;"/>
   </g>
   <g id="line2d_2">
    <path clip-path="url(#p5384129422)" d="M 150.19298 106.3734 
L 368.35778 106.3734 
" style="fill:none;stroke:#000000;stroke-linecap:square;stroke-width:2;"/>
   </g>
   <g id="line2d_3">
    <path clip-path="url(#p5384129422)" d="M 150.19298 151.8244 
L 368.35778 151.8244 
" style="fill:none;stroke:#000000;stroke-linecap:square;stroke-width:2;"/>
   </g>
   <g id="line2d_4">
    <path clip-path="url(#p5384129422)" d="M 232.00478 106.3734 
L 232.00478 60.9224 
" style="fill:none;stroke:#6fa4ff;stroke-linecap:square;stroke-width:2;"/>
   </g>
   <g id="line2d_5">
    <path clip-path="url(#p5384129422)" d="M 277.45578 151.8244 
L 277.45578 106.3734 
" style="fill:none;stroke:#6fa4ff;stroke-linecap:square;stroke-width:2;"/>
   </g>
   <g id="line2d_6">
    <path clip-path="url(#p5384129422)" d="M 322.90678 151.8244 
L 322.90678 60.9224 
" style="fill:none;stroke:#6fa4ff;stroke-linecap:square;stroke-width:2;"/>
   </g>
   <g id="patch_2">
    <path clip-path="url(#p5384129422)" d="M 171.782205 166.595975 
L 201.325355 166.595975 
L 201.325355 137.052825 
L 171.782205 137.052825 
z
" style="fill:#6fa4ff;"/>
   </g>
   <g id="patch_3">
    <path clip-path="url(#p5384129422)" d="M 171.782205 121.144975 
L 201.325355 121.144975 
L 201.325355 91.601825 
L 171.782205 91.601825 
z
" style="fill:#6fa4ff;"/>
   </g>
   <g id="patch_4">
    <path clip-path="url(#p5384129422)" d="M 171.782205 75.693975 
L 201.325355 75.693975 
L 201.325355 46.150825 
L 171.782205 46.150825 
z
" style="fill:#6fa4ff;"/>
   </g>
   <g id="patch_5">
    <path clip-path="url(#p5384129422)" d="M 232.00478 65.353872 
C 233.18002 65.353872 234.307284 64.886945 235.138304 64.055924 
C 235.969325 63.224904 236.436252 62.09764 236.436252 60.9224 
C 236.436252 59.74716 235.969325 58.619896 235.138304 57.788876 
C 234.307284 56.957855 233.18002 56.490927 232.00478 56.490927 
C 230.82954 56.490927 229.702276 56.957855 228.871256 57.788876 
C 228.040235 58.619896 227.573307 59.74716 227.573307 60.9224 
C 227.573307 62.09764 228.040235 63.224904 228.871256 64.055924 
C 229.702276 64.886945 230.82954 65.353872 232.00478 65.353872 
z
" style="fill:#6fa4ff;stroke:#6fa4ff;stroke-linejoin:miter;stroke-width:1.5;"/>
   </g>
   <g id="patch_6">
    <path clip-path="url(#p5384129422)" d="M 232.00478 116.713502 
C 234.747007 116.713502 237.377289 115.624004 239.316337 113.684957 
C 241.255384 111.745909 242.344882 109.115627 242.344882 106.3734 
C 242.344882 103.631173 241.255384 101.000891 239.316337 99.061843 
C 237.377289 97.122796 234.747007 96.033297 232.00478 96.033297 
C 229.262553 96.033297 226.632271 97.122796 224.693223 99.061843 
C 222.754176 101.000891 221.664677 103.631173 221.664677 106.3734 
C 221.664677 109.115627 222.754176 111.745909 224.693223 113.684957 
C 226.632271 115.624004 229.262553 116.713502 232.00478 116.713502 
z
" style="fill:#6fa4ff;stroke:#6fa4ff;stroke-linejoin:miter;stroke-width:2;"/>
   </g>
   <g id="patch_7">
    <path clip-path="url(#p5384129422)" d="M 277.45578 110.804872 
C 278.63102 110.804872 279.758284 110.337945 280.589304 109.506924 
C 281.420325 108.675904 281.887252 107.54864 281.887252 106.3734 
C 281.887252 105.19816 281.420325 104.070896 280.589304 103.239876 
C 279.758284 102.408855 278.63102 101.941927 277.45578 101.941927 
C 276.28054 101.941927 275.153276 102.408855 274.322256 103.239876 
C 273.491235 104.070896 273.024307 105.19816 273.024307 106.3734 
C 273.024307 107.54864 273.491235 108.675904 274.322256 109.506924 
C 275.153276 110.337945 276.28054 110.804872 277.45578 110.804872 
z
" style="fill:#6fa4ff;stroke:#6fa4ff;stroke-linejoin:miter;stroke-width:1.5;"/>
   </g>
   <g id="patch_8">
    <path clip-path="url(#p5384129422)" d="M 277.45578 162.164502 
C 280.198007 162.164502 282.828289 161.075004 284.767337 159.135957 
C 286.706384 157.196909 287.795882 154.566627 287.795882 151.8244 
C 287.795882 149.082173 286.706384 146.451891 284.767337 144.512843 
C 282.828289 142.573796 280.198007 141.484297 277.45578 141.484297 
C 274.713553 141.484297 272.083271 142.573796 270.144223 144.512843 
C 268.205176 146.451891 267.115677 149.082173 267.115677 151.8244 
C 267.115677 154.566627 268.205176 157.196909 270.144223 159.135957 
C 272.083271 161.075004 274.713553 162.164502 277.45578 162.164502 
z
" style="fill:#6fa4ff;stroke:#6fa4ff;stroke-linejoin:miter;stroke-width:2;"/>
   </g>
   <g id="patch_9">
    <path clip-path="url(#p5384129422)" d="M 322.90678 65.353872 
C 324.08202 65.353872 325.209284 64.886945 326.040304 64.055924 
C 326.871325 63.224904 327.338252 62.09764 327.338252 60.9224 
C 327.338252 59.74716 326.871325 58.619896 326.040304 57.788876 
C 325.209284 56.957855 324.08202 56.490927 322.90678 56.490927 
C 321.73154 56.490927 320.604276 56.957855 319.773256 57.788876 
C 318.942235 58.619896 318.475307 59.74716 318.475307 60.9224 
C 318.475307 62.09764 318.942235 63.224904 319.773256 64.055924 
C 320.604276 64.886945 321.73154 65.353872 322.90678 65.353872 
z
" style="fill:#6fa4ff;stroke:#6fa4ff;stroke-linejoin:miter;stroke-width:1.5;"/>
   </g>
   <g id="patch_10">
    <path clip-path="url(#p5384129422)" d="M 322.90678 162.164502 
C 325.649007 162.164502 328.279289 161.075004 330.218337 159.135957 
C 332.157384 157.196909 333.246882 154.566627 333.246882 151.8244 
C 333.246882 149.082173 332.157384 146.451891 330.218337 144.512843 
C 328.279289 142.573796 325.649007 141.484297 322.90678 141.484297 
C 320.164553 141.484297 317.534271 142.573796 315.595223 144.512843 
C 313.656176 146.451891 312.566677 149.082173 312.566677 151.8244 
C 312.566677 154.566627 313.656176 157.196909 315.595223 159.135957 
C 317.534271 161.075004 320.164553 162.164502 322.90678 162.164502 
z
" style="fill:#6fa4ff;stroke:#6fa4ff;stroke-linejoin:miter;stroke-width:2;"/>
   </g>
   <g id="line2d_7">
    <path clip-path="url(#p5384129422)" d="M 232.00478 112.28203 
L 232.00478 100.46477 
" style="fill:none;stroke:#ffffff;stroke-linecap:square;stroke-width:2;"/>
   </g>
   <g id="line2d_8">
    <path clip-path="url(#p5384129422)" d="M 226.09615 106.3734 
L 237.91341 106.3734 
" style="fill:none;stroke:#ffffff;stroke-linecap:square;stroke-width:2;"/>
   </g>
   <g id="line2d_9">
    <path clip-path="url(#p5384129422)" d="M 277.45578 157.73303 
L 277.45578 145.91577 
" style="fill:none;stroke:#ffffff;stroke-linecap:square;stroke-width:2;"/>
   </g>
   <g id="line2d_10">
    <path clip-path="url(#p5384129422)" d="M 271.54715 151.8244 
L 283.36441 151.8244 
" style="fill:none;stroke:#ffffff;stroke-linecap:square;stroke-width:2;"/>
   </g>
   <g id="line2d_11">
    <path clip-path="url(#p5384129422)" d="M 322.90678 157.73303 
L 322.90678 145.91577 
" style="fill:none;stroke:#ffffff;stroke-linecap:square;stroke-width:2;"/>
   </g>
   <g id="line2d_12">
    <path clip-path="url(#p5384129422)" d="M 316.99815 151.8244 
L 328.81541 151.8244 
" style="fill:none;stroke:#ffffff;stroke-linecap:square;stroke-width:2;"/>
   </g>
   <g id="text_1">
    <g clip-path="url(#p5384129422)">
     <!-- $H$ -->
     <defs>
      <path d="M 16.890625 72.90625 
L 26.8125 72.90625 
L 21 43.015625 
L 56.78125 43.015625 
L 62.59375 72.90625 
L 72.515625 72.90625 
L 58.296875 0 
L 48.390625 0 
L 55.171875 34.71875 
L 19.390625 34.71875 
L 12.59375 0 
L 2.6875 0 
z
" id="DejaVuSans-Oblique-72"/>
     </defs>
     <g transform="translate(181.61378 155.411587)scale(0.13 -0.13)">
      <use transform="translate(0 0.09375)" xlink:href="#DejaVuSans-Oblique-72"/>
     </g>
    </g>
   </g>
   <g id="text_2">
    <g clip-path="url(#p5384129422)">
     <!-- $H$ -->
     <g transform="translate(181.61378 109.960587)scale(0.13 -0.13)">
      <use transform="translate(0 0.09375)" xlink:href="#DejaVuSans-Oblique-72"/>
     </g>
    </g>
   </g>
   <g id="text_3">
    <g clip-path="url(#p5384129422)">
     <!-- $H$ -->
     <g transform="translate(181.61378 64.509587)scale(0.13 -0.13)">
      <use transform="translate(0 0.09375)" xlink:href="#DejaVuSans-Oblique-72"/>
     </g>
    </g>
   </g>
   <g id="text_4">
    <g clip-path="url(#p5384129422)">
     <!-- ${q}_{0}$ -->
     <defs>
      <path d="M 41.703125 8.203125 
Q 38.09375 3.46875 33.171875 1.015625 
Q 28.265625 -1.421875 22.3125 -1.421875 
Q 14.015625 -1.421875 9.296875 4.171875 
Q 4.59375 9.765625 4.59375 19.578125 
Q 4.59375 27.484375 7.5 34.859375 
Q 10.40625 42.234375 15.828125 48.09375 
Q 19.34375 51.90625 23.90625 53.953125 
Q 28.46875 56 33.5 56 
Q 39.546875 56 43.453125 53.609375 
Q 47.359375 51.21875 49.125 46.390625 
L 50.6875 54.59375 
L 59.71875 54.59375 
L 45.125 -20.609375 
L 36.078125 -20.609375 
z
M 13.921875 20.90625 
Q 13.921875 13.671875 16.9375 9.890625 
Q 19.96875 6.109375 25.6875 6.109375 
Q 34.1875 6.109375 40.1875 14.234375 
Q 46.1875 22.359375 46.1875 33.984375 
Q 46.1875 41.015625 43.078125 44.75 
Q 39.984375 48.484375 34.1875 48.484375 
Q 29.9375 48.484375 26.3125 46.5 
Q 22.703125 44.53125 20.015625 40.71875 
Q 17.1875 36.71875 15.546875 31.34375 
Q 13.921875 25.984375 13.921875 20.90625 
z
" id="DejaVuSans-Oblique-113"/>
      <path d="M 31.78125 66.40625 
Q 24.171875 66.40625 20.328125 58.90625 
Q 16.5 51.421875 16.5 36.375 
Q 16.5 21.390625 20.328125 13.890625 
Q 24.171875 6.390625 31.78125 6.390625 
Q 39.453125 6.390625 43.28125 13.890625 
Q 47.125 21.390625 47.125 36.375 
Q 47.125 51.421875 43.28125 58.90625 
Q 39.453125 66.40625 31.78125 66.40625 
z
M 31.78125 74.21875 
Q 44.046875 74.21875 50.515625 64.515625 
Q 56.984375 54.828125 56.984375 36.375 
Q 56.984375 17.96875 50.515625 8.265625 
Q 44.046875 -1.421875 31.78125 -1.421875 
Q 19.53125 -1.421875 13.0625 8.265625 
Q 6.59375 17.96875 6.59375 36.375 
Q 6.59375 54.828125 13.0625 64.515625 
Q 19.53125 74.21875 31.78125 74.21875 
z
" id="DejaVuSans-48"/>
     </defs>
     <g transform="translate(113.97508 65.373377)scale(0.1625 -0.1625)">
      <use xlink:href="#DejaVuSans-Oblique-113"/>
      <use transform="translate(63.476562 -16.40625)scale(0.7)" xlink:href="#DejaVuSans-48"/>
     </g>
    </g>
   </g>
   <g id="text_5">
    <g clip-path="url(#p5384129422)">
     <!-- ${q}_{1}$ -->
     <defs>
      <path d="M 12.40625 8.296875 
L 28.515625 8.296875 
L 28.515625 63.921875 
L 10.984375 60.40625 
L 10.984375 69.390625 
L 28.421875 72.90625 
L 38.28125 72.90625 
L 38.28125 8.296875 
L 54.390625 8.296875 
L 54.390625 0 
L 12.40625 0 
z
" id="DejaVuSans-49"/>
     </defs>
     <g transform="translate(113.97508 110.824377)scale(0.1625 -0.1625)">
      <use xlink:href="#DejaVuSans-Oblique-113"/>
      <use transform="translate(63.476562 -16.40625)scale(0.7)" xlink:href="#DejaVuSans-49"/>
     </g>
    </g>
   </g>
   <g id="text_6">
    <g clip-path="url(#p5384129422)">
     <!-- ${q}_{2}$ -->
     <defs>
      <path d="M 19.1875 8.296875 
L 53.609375 8.296875 
L 53.609375 0 
L 7.328125 0 
L 7.328125 8.296875 
Q 12.9375 14.109375 22.625 23.890625 
Q 32.328125 33.6875 34.8125 36.53125 
Q 39.546875 41.84375 41.421875 45.53125 
Q 43.3125 49.21875 43.3125 52.78125 
Q 43.3125 58.59375 39.234375 62.25 
Q 35.15625 65.921875 28.609375 65.921875 
Q 23.96875 65.921875 18.8125 64.3125 
Q 13.671875 62.703125 7.8125 59.421875 
L 7.8125 69.390625 
Q 13.765625 71.78125 18.9375 73 
Q 24.125 74.21875 28.421875 74.21875 
Q 39.75 74.21875 46.484375 68.546875 
Q 53.21875 62.890625 53.21875 53.421875 
Q 53.21875 48.921875 51.53125 44.890625 
Q 49.859375 40.875 45.40625 35.40625 
Q 44.1875 33.984375 37.640625 27.21875 
Q 31.109375 20.453125 19.1875 8.296875 
z
" id="DejaVuSans-50"/>
     </defs>
     <g transform="translate(113.97508 156.275377)scale(0.1625 -0.1625)">
      <use xlink:href="#DejaVuSans-Oblique-113"/>
      <use transform="translate(63.476562 -16.40625)scale(0.7)" xlink:href="#DejaVuSans-50"/>
     </g>
    </g>
   </g>
  </g>
 </g>
 <defs>
  <clipPath id="p5384129422">
   <rect height="154.5334" width="316.33896" x="56.56392" y="24.5616"/>
  </clipPath>
 </defs>
</svg>
